<svg width="49" height="31" viewBox="0 0 49 31" fill="none" xmlns="http://www.w3.org/2000/svg">
<g clip-path="url(#clip0_39_46)">
<path d="M19.1546 0.33576C19.4118 0.33576 19.4463 0.335755 19.7114 0.335755C19.7871 0.297704 19.6379 0.372686 19.7114 0.335755C19.7122 0.397357 19.713 0.458958 19.7139 0.522426C19.7216 1.1652 19.7222 1.80771 19.7189 2.45052C19.7185 2.6902 19.7199 2.92989 19.7232 3.16955C19.7276 3.51476 19.7255 3.85942 19.7223 4.20463C19.725 4.31133 19.7277 4.41802 19.7305 4.52795C19.721 4.97488 19.7145 5.2581 19.389 5.5816C19.1322 5.75612 18.8742 5.90282 18.5977 6.04334C18.4949 6.10553 18.392 6.16773 18.2859 6.23181C18.1552 6.30514 18.1552 6.30514 18.0218 6.37995C17.8714 6.46476 17.8714 6.46476 17.718 6.55129C17.6132 6.60987 17.5085 6.66845 17.4006 6.72881C17.1725 6.85743 16.9444 6.9861 16.7163 7.11482C16.6022 7.17907 16.4882 7.24332 16.3706 7.30952C15.8706 7.59181 15.372 7.87678 14.874 8.16269C14.7798 8.21678 14.6856 8.27087 14.5885 8.3266C13.7183 8.82726 12.8529 9.33605 11.9875 9.84492C11.0784 10.3787 10.1634 10.9011 9.2432 11.4152C9.59803 11.6968 9.96984 11.9207 10.3634 12.1439C10.4285 12.1811 10.4937 12.2182 10.5608 12.2565C10.7687 12.375 10.9769 12.4932 11.1851 12.6113C12.114 13.1382 13.0338 13.6742 13.9385 14.2423C14.3294 14.4829 14.7291 14.7029 15.1329 14.9208C15.3984 15.0644 15.6631 15.2091 15.9272 15.3553C16.0042 15.3979 16.0812 15.4405 16.1606 15.4844C16.3302 15.5793 16.4991 15.6754 16.6671 15.7731C17.118 16.0338 17.5623 16.2655 18.0456 16.4596C18.6288 16.7117 19.1773 16.97 19.6 17.4585C19.9364 18.3102 19.7989 19.2727 19.7323 20.1654C19.7216 20.4132 19.712 20.661 19.7033 20.9088C19.6801 21.513 19.6449 22.1155 19.6 22.7184C19.1838 22.654 18.8866 22.5394 18.5273 22.3206C18.4281 22.2609 18.3289 22.2012 18.2267 22.1396C18.124 22.0767 18.0214 22.0138 17.9156 21.949C17.7159 21.8279 17.5161 21.707 17.3162 21.5862C17.2081 21.5207 17.0999 21.4553 16.9885 21.3878C16.1574 20.8886 15.3161 20.4065 14.4773 19.9206C14.4819 20.7053 14.49 21.4898 14.5004 22.2744C14.5035 22.5412 14.5059 22.8081 14.5075 23.0749C14.5099 23.4588 14.5151 23.8427 14.5208 24.2266C14.521 24.405 14.521 24.405 14.5212 24.587C14.5345 25.2659 14.5836 25.6703 15.0341 26.1877C16.477 27.373 19.1603 27.4448 20.9364 27.6426C21.0219 27.6533 21.1075 27.664 21.1956 27.6751C22.3197 27.8001 23.4541 27.7818 24.5835 27.7825C24.6971 27.7826 24.8106 27.7827 24.9275 27.7827C30.1142 27.8599 30.1142 27.8599 34.8568 26.0758C35.1801 25.7244 35.2337 25.4861 35.2391 25.0123C35.2424 24.8275 35.2424 24.8275 35.2458 24.639C35.2465 24.5067 35.2472 24.3743 35.2479 24.238C35.2499 24.102 35.2519 23.966 35.254 23.8259C35.26 23.3915 35.2638 22.957 35.2675 22.5226C35.2712 22.2281 35.275 21.9336 35.279 21.6391C35.2885 20.917 35.2961 20.195 35.3023 19.4729C35.1879 19.5379 35.0735 19.6028 34.9556 19.6697C33.5538 20.464 33.5538 20.464 32.884 20.8273C32.0878 21.2613 31.3112 21.7294 30.5326 22.1943C30.4182 22.2619 30.3039 22.3296 30.1861 22.3993C30.0316 22.4913 30.0316 22.4913 29.8739 22.5853C29.6227 22.7184 29.6227 22.7184 29.4 22.7184C29.2728 22.4628 29.2733 22.3169 29.2707 22.0328C29.2696 21.9375 29.2686 21.8423 29.2675 21.7441C29.2668 21.5896 29.2668 21.5896 29.266 21.4319C29.2654 21.3262 29.2648 21.2205 29.2641 21.1116C29.2631 20.8877 29.2623 20.6639 29.2619 20.4401C29.2608 20.0972 29.2574 19.7544 29.2539 19.4115C29.2531 19.1943 29.2525 18.9771 29.2521 18.7599C29.2507 18.6571 29.2494 18.5543 29.2479 18.4483C29.2484 18.3049 29.2484 18.3049 29.249 18.1586C29.2486 18.0746 29.2481 17.9905 29.2477 17.9039C29.3004 17.6189 29.4021 17.5278 29.6227 17.3466C29.8424 17.1996 30.0656 17.0579 30.2909 16.9199C30.4081 16.8476 30.5252 16.7754 30.6459 16.7009C31.0774 16.4428 31.5191 16.2043 31.9605 15.9639C32.559 15.635 33.151 15.2946 33.7432 14.9544C33.8095 14.9164 33.8758 14.8783 33.9441 14.8391C35.2249 14.1033 36.4959 13.3513 37.7636 12.5929C37.8739 12.5269 37.9842 12.461 38.0978 12.393C38.3145 12.2625 38.5304 12.1308 38.7458 11.998C38.846 11.9364 38.9462 11.8747 39.0495 11.8112C39.1378 11.7564 39.2262 11.7015 39.3172 11.645C39.5341 11.5271 39.5341 11.5271 39.7568 11.5271C39.7568 11.4532 39.7568 11.3794 39.7568 11.3033C39.6681 11.2784 39.5794 11.2536 39.488 11.2281C38.9719 11.036 38.519 10.7703 38.0446 10.4919C37.9424 10.4326 37.8402 10.3732 37.7349 10.3121C37.4062 10.121 37.078 9.92888 36.75 9.73648C36.6445 9.67459 36.5389 9.6127 36.4301 9.54893C35.997 9.29488 35.5639 9.04076 35.131 8.78614C34.5111 8.42196 33.8895 8.06084 33.2656 7.70368C33.1969 7.66435 33.1282 7.62503 33.0575 7.58452C32.7249 7.39422 32.3922 7.2043 32.0592 7.01482C31.4207 6.65009 30.7854 6.28033 30.1565 5.89907C30.0381 5.82757 29.9197 5.75607 29.7977 5.6824C29.5114 5.48377 29.5114 5.48377 29.2887 5.14803C29.2619 4.92496 29.2619 4.92496 29.2634 4.66816C29.2634 4.57184 29.2634 4.47552 29.2634 4.37628C29.2646 4.27275 29.2657 4.16922 29.2669 4.06256C29.2674 3.90305 29.2674 3.90305 29.2679 3.74032C29.2691 3.4005 29.2719 3.06072 29.2747 2.72091C29.2758 2.4906 29.2769 2.26029 29.2778 2.02997C29.2802 1.46522 29.2841 0.900494 29.2887 0.335755C29.8323 0.335755 30.1483 0.53882 30.6041 0.804392C30.6916 0.854343 30.7791 0.904295 30.8692 0.955759C31.0595 1.06448 31.2496 1.17359 31.4395 1.28303C31.741 1.45623 32.0435 1.62742 32.3464 1.79806C34.4023 2.95738 36.4385 4.14944 38.4567 5.37377C39.0054 5.70552 39.5591 6.02209 40.1244 6.32443C40.5093 6.53769 40.8844 6.76576 41.2602 6.9946C41.826 7.33862 42.3957 7.66937 42.9781 7.98433C44.0992 8.59129 45.2123 9.20153 46.2781 9.90303C46.5502 10.0723 46.8251 10.2135 47.1138 10.352C47.7147 10.6418 48.2423 11.0182 48.7773 11.4152C48.3799 11.8786 47.9001 12.1247 47.3713 12.4084C46.745 12.7483 46.1287 13.0987 45.5198 13.4692C44.8531 13.8704 44.1767 14.2552 43.5025 14.6434C43.3093 14.7546 43.1163 14.8661 42.9233 14.9776C42.8097 15.0431 42.696 15.1085 42.579 15.176C42.3314 15.3097 42.3314 15.3097 42.2068 15.4441C42.1928 15.6785 42.1867 15.9134 42.1836 16.1482C42.1825 16.2218 42.1814 16.2953 42.1803 16.371C42.1769 16.6153 42.1746 16.8596 42.1725 17.104C42.1714 17.2289 42.1714 17.2289 42.1703 17.3564C42.1666 17.7973 42.1639 18.2383 42.1617 18.6793C42.1597 19.0446 42.1559 19.4099 42.1503 19.7752C42.1436 20.2158 42.1402 20.6563 42.1391 21.0969C42.1381 21.2649 42.1361 21.4329 42.1328 21.6009C42.1285 21.8362 42.1283 22.0712 42.1292 22.3065C42.1281 22.4404 42.1269 22.5743 42.1257 22.7122C42.1771 23.085 42.1771 23.085 42.5301 23.3116C42.6439 23.3744 42.7578 23.4371 42.875 23.5018C43.2725 23.8346 43.4357 24.1101 43.5432 24.621C43.5293 25.0161 43.4664 25.3965 43.3566 25.7768C43.3078 26.1811 43.4169 26.4438 43.5571 26.8247C43.5823 26.8949 43.6074 26.9651 43.6333 27.0374C43.7133 27.2606 43.7951 27.4831 43.8773 27.7056C43.9594 27.9284 44.0411 28.1514 44.1213 28.375C44.194 28.5775 44.2683 28.7795 44.3428 28.9814C44.4321 29.3138 44.4574 29.4581 44.3227 29.769C43.6245 30.4507 42.6453 30.7616 41.6866 30.7827C40.6094 30.7037 39.7994 30.3527 38.9773 29.6571C39.0291 29.0512 39.2011 28.5509 39.4209 27.986C39.8231 26.944 40.0552 26.1227 39.9154 25.0096C39.8487 24.4406 39.9085 24.1136 40.2449 23.6526C40.425 23.5018 40.425 23.5018 40.9818 23.278C41.0186 20.9144 41.0553 18.5508 41.0932 16.1155C40.3013 16.5496 39.5249 16.9898 38.7546 17.4585C38.0121 17.9062 38.0121 17.9062 37.7523 17.9062C37.7544 18.0375 37.7544 18.0375 37.7565 18.1715C37.7698 19.0074 37.7829 19.8434 37.7959 20.6793C37.8025 21.1088 37.8092 21.5383 37.8161 21.9678C37.8303 22.8611 37.8436 23.7545 37.8548 24.6478C37.8605 25.0999 37.8689 25.5519 37.8789 26.0039C37.882 26.2033 37.885 26.4027 37.888 26.6022C37.8906 26.6876 37.8932 26.7731 37.8959 26.8612C37.9022 27.4978 37.7857 28.0494 37.3325 28.5178C35.5526 29.6601 33.2916 30.0201 31.2306 30.3006C31.1375 30.3135 31.0445 30.3264 30.9487 30.3397C29.0246 30.5792 27.073 30.5707 25.1376 30.567C24.7714 30.5664 24.4053 30.567 24.0391 30.5677C22.1806 30.5684 20.3106 30.5564 18.4655 30.3076C18.3614 30.2936 18.2572 30.2797 18.15 30.2653C16.2573 29.9925 13.9742 29.6428 12.3614 28.5379C12.3614 28.5379 12.1441 28.3224 12.1387 28.3141C11.8539 27.8825 11.8818 27.4308 11.8804 26.9321C11.8793 26.8382 11.8782 26.7442 11.877 26.6475C11.8736 26.3374 11.8717 26.0274 11.8698 25.7174C11.8677 25.5022 11.8656 25.2871 11.8633 25.0719C11.8576 24.506 11.8531 23.9401 11.849 23.3741C11.8446 22.7965 11.8389 22.2189 11.8333 21.6413C11.8225 20.5081 11.8131 19.375 11.8046 18.2419C11.6758 18.1912 11.6758 18.1912 11.5444 18.1396C11.2285 18.0102 10.9406 17.8565 10.6431 17.6889C10.5278 17.6241 10.4126 17.5593 10.2938 17.4925C10.1722 17.4236 10.0506 17.3547 9.9253 17.2836C9.73707 17.1773 9.73707 17.1773 9.54504 17.0689C8.82153 16.6587 8.10307 16.242 7.39319 15.8085C6.85836 15.482 6.31874 15.1644 5.777 14.8495C5.6886 14.7981 5.6002 14.7467 5.50912 14.6938C4.93978 14.3636 4.36869 14.0366 3.79696 13.7106C3.3098 13.4323 2.82409 13.1514 2.33865 12.8701C2.24025 12.8134 2.14184 12.7567 2.04045 12.6982C1.75595 12.5335 1.47292 12.3664 1.19021 12.1986C1.10364 12.1488 1.01707 12.099 0.927874 12.0477C0.690383 11.9048 0.690383 11.9048 0.334106 11.639C0.334106 11.4913 0.334106 11.3436 0.334106 11.1913C0.823497 10.9181 1.31289 10.6449 1.80228 10.3717C1.93569 10.2972 1.93569 10.2972 2.0718 10.2211C2.24606 10.1239 2.42041 10.0268 2.59485 9.92987C3.16954 9.61023 3.74019 9.28422 4.3084 8.95308C4.39823 8.90081 4.48807 8.84853 4.58063 8.79467C5.29049 8.3807 5.99684 7.96095 6.70271 7.54018C7.4792 7.07741 8.25928 6.62313 9.04788 6.18156C9.56982 5.88866 10.086 5.58687 10.6004 5.28093C11.925 4.49372 13.2609 3.72601 14.6052 2.97329C15.8141 2.29573 17.0206 1.6002 18.1819 0.842644C18.2605 0.791358 18.3392 0.740073 18.4203 0.687233C18.4895 0.641105 18.5588 0.594977 18.6302 0.547451C18.8205 0.447668 19.1546 0.33576 19.1546 0.33576C19.1546 0.411861 19.1546 0.261897 19.1546 0.33576Z" fill="#146DC2"/>
<path d="M28.3977 0.335754C28.4345 0.335754 28.4712 0.335754 28.5091 0.335754C28.7549 5.90297 28.7549 5.90297 27.4431 8.01422C27.188 8.44317 27.0028 8.8988 26.8108 9.35877C26.5572 9.94098 26.2899 10.5126 26.0034 11.0794C25.7261 11.628 25.469 12.1807 25.2238 12.7441C24.7281 13.8832 24.1987 15.0062 23.6695 16.1299C23.28 16.9589 22.9016 17.7914 22.542 18.634C22.282 19.2401 21.989 19.8239 21.6902 20.4115C21.4256 20.943 21.1968 21.4908 20.9707 22.0397C20.7373 22.5946 20.7373 22.5946 20.4909 22.7184C20.4621 21.9965 20.4429 21.2748 20.4297 20.5524C20.4242 20.3079 20.4167 20.0634 20.4069 19.819C20.3378 18.0446 20.5928 16.7931 21.4687 15.2462C21.6763 14.8644 21.8425 14.4676 22.0082 14.0661C22.2606 13.4748 22.5321 12.8978 22.8226 12.3245C23.3846 11.2141 23.8774 10.0741 24.3677 8.93035C24.7329 8.0808 25.1196 7.25211 25.5375 6.42716C25.7876 5.91509 26.0043 5.39103 26.2239 4.86519C26.3905 4.48277 26.5723 4.11337 26.7621 3.74212C27.1614 2.9566 27.5029 2.15007 27.8386 1.3353C27.8994 1.18935 27.8994 1.18935 27.9614 1.04046C28.0152 0.909486 28.0152 0.909486 28.0701 0.775867C28.175 0.559581 28.175 0.559581 28.3977 0.335754Z" fill="#146EC2"/>
</g>
<defs>
<clipPath id="clip0_39_46">
<rect width="49" height="31" fill="white"/>
</clipPath>
</defs>
</svg>
