<svg width="221" height="60" viewBox="0 0 221 60" fill="none" xmlns="http://www.w3.org/2000/svg">
<path d="M37.2966 0.041538C37.8063 0.041538 37.8748 0.0415286 38.4 0.0415286C38.2543 0.114257 38.5501 -0.0334033 38.4 0.0415286C38.4016 0.162839 38.4033 0.284149 38.405 0.409136C38.4202 1.67494 38.4215 2.94022 38.4148 4.20609C38.4141 4.67808 38.417 5.15009 38.4234 5.62204C38.4321 6.30185 38.4281 6.9806 38.4216 7.66041C38.427 7.87052 38.4324 8.08063 38.438 8.2971C38.4191 9.17723 38.4061 9.73498 37.7611 10.372C37.2523 10.7157 36.7409 11.0046 36.1931 11.2813C35.9892 11.4038 35.7853 11.5263 35.5752 11.6525C35.3161 11.7969 35.3161 11.7969 35.0517 11.9442C34.7537 12.1112 34.7537 12.1112 34.4496 12.2816C34.2421 12.397 34.0345 12.5123 33.8207 12.6312C33.3686 12.8845 32.9166 13.1379 32.4647 13.3914C32.2386 13.5179 32.0125 13.6444 31.7796 13.7748C30.7887 14.3307 29.8007 14.8919 28.8138 15.4549C28.627 15.5614 28.4403 15.668 28.2479 15.7777C26.5235 16.7636 24.8086 17.7656 23.0936 18.7677C21.292 19.8188 19.4788 20.8476 17.6552 21.8599C18.3583 22.4145 19.0952 22.8554 19.875 23.2951C20.0041 23.3682 20.1332 23.4414 20.2662 23.5167C20.6783 23.7502 21.0908 23.9828 21.5034 24.2153C23.3442 25.253 25.167 26.3087 26.9598 27.4273C27.7345 27.9011 28.5266 28.3344 29.3267 28.7634C29.8529 29.0463 30.3775 29.3313 30.9009 29.6192C31.0535 29.703 31.2061 29.7869 31.3634 29.8734C31.6995 30.0602 32.0342 30.2494 32.3671 30.4418C33.2607 30.9552 34.1411 31.4116 35.099 31.7939C36.2547 32.2902 37.3417 32.7988 38.1793 33.7609C38.846 35.4382 38.5734 37.3336 38.4414 39.0915C38.4203 39.5794 38.4012 40.0674 38.3841 40.5555C38.3381 41.7453 38.2682 42.9318 38.1793 44.1191C37.3546 43.9923 36.7655 43.7666 36.0534 43.3357C35.8569 43.2181 35.6603 43.1005 35.4578 42.9793C35.2544 42.8555 35.0509 42.7316 34.8414 42.604C34.4456 42.3655 34.0496 42.1274 33.6535 41.8894C33.4392 41.7605 33.2249 41.6316 33.0041 41.4988C31.3571 40.5158 29.6899 39.5663 28.0276 38.6094C28.0368 40.1547 28.0528 41.6997 28.0734 43.2448C28.0796 43.7702 28.0843 44.2957 28.0874 44.8211C28.0921 45.5772 28.1024 46.3331 28.1138 47.0892C28.1142 47.4405 28.1142 47.4405 28.1146 47.7989C28.141 49.1359 28.2382 49.9321 29.131 50.9512C31.9903 53.2852 37.308 53.4267 40.8276 53.8162C40.9971 53.8373 41.1667 53.8584 41.3414 53.8801C43.569 54.1264 45.8169 54.0904 48.0552 54.0917C48.2801 54.0919 48.5051 54.092 48.7369 54.0922C59.0153 54.2441 59.0153 54.2441 68.4138 50.7308C69.0545 50.0388 69.1606 49.5695 69.1713 48.6365C69.1778 48.2725 69.1778 48.2725 69.1845 47.9013C69.1859 47.6407 69.1873 47.3801 69.1888 47.1116C69.1928 46.8438 69.1967 46.576 69.2008 46.3001C69.2128 45.4446 69.2202 44.589 69.2276 43.7335C69.2349 43.1535 69.2425 42.5736 69.2504 41.9936C69.2692 40.5717 69.2843 39.1498 69.2966 37.7279C69.0698 37.8557 68.8431 37.9836 68.6095 38.1153C65.8316 39.6796 65.8316 39.6796 64.5043 40.3949C62.9264 41.2496 61.3875 42.1714 59.8444 43.0869C59.6178 43.2202 59.3912 43.3534 59.1578 43.4907C58.8516 43.672 58.8516 43.672 58.5392 43.8569C58.0414 44.1191 58.0414 44.1191 57.6 44.1191C57.348 43.6158 57.3488 43.3284 57.3438 42.7689C57.3416 42.5813 57.3395 42.3938 57.3373 42.2005C57.3359 41.8961 57.3359 41.8961 57.3345 41.5855C57.3332 41.3774 57.332 41.1692 57.3307 40.9548C57.3286 40.514 57.3271 40.0733 57.3263 39.6326C57.3242 38.9573 57.3173 38.2822 57.3103 37.6069C57.3089 37.1792 57.3077 36.7515 57.3069 36.3238C57.3042 36.1213 57.3014 35.9188 57.2986 35.7102C57.2996 35.4278 57.2996 35.4278 57.3006 35.1397C57.2998 34.9741 57.299 34.8086 57.2982 34.638C57.4025 34.0769 57.6041 33.8975 58.0414 33.5405C58.4766 33.251 58.919 32.972 59.3655 32.7003C59.5977 32.558 59.8298 32.4156 60.069 32.269C60.9241 31.7607 61.7994 31.2911 62.6741 30.8176C63.8602 30.1699 65.0333 29.4996 66.2069 28.8297C66.3383 28.7548 66.4696 28.6798 66.605 28.6026C69.1433 27.1536 71.6619 25.6727 74.1741 24.1792C74.3927 24.0493 74.6112 23.9194 74.8364 23.7855C75.2658 23.5285 75.6938 23.2692 76.1205 23.0077C76.3191 22.8864 76.5178 22.765 76.7224 22.6399C76.8975 22.5319 77.0725 22.4238 77.2529 22.3125C77.6828 22.0803 77.6828 22.0803 78.1241 22.0803C78.1241 21.9349 78.1241 21.7894 78.1241 21.6396C77.9483 21.5907 77.7725 21.5418 77.5914 21.4915C76.5686 21.1132 75.671 20.59 74.731 20.0417C74.5285 19.9249 74.326 19.8081 74.1173 19.6877C73.4658 19.3113 72.8155 18.933 72.1655 18.5541C71.9563 18.4322 71.7471 18.3104 71.5316 18.1848C70.6732 17.6845 69.8149 17.1841 68.9572 16.6827C67.7286 15.9655 66.4969 15.2543 65.2603 14.551C65.1243 14.4735 64.9882 14.3961 64.848 14.3163C64.189 13.9416 63.5297 13.5676 62.8698 13.1944C61.6044 12.4762 60.3454 11.748 59.0991 10.9972C58.8645 10.8564 58.6298 10.7156 58.3881 10.5705C57.8207 10.1794 57.8207 10.1794 57.3793 9.51822C57.3262 9.07894 57.3262 9.07894 57.3292 8.57323C57.3292 8.38355 57.3293 8.19387 57.3293 7.99844C57.3316 7.79456 57.3339 7.59068 57.3362 7.38062C57.3371 7.06651 57.3371 7.06651 57.3381 6.74605C57.3406 6.07685 57.3461 5.40772 57.3517 4.73855C57.3539 4.285 57.356 3.83146 57.3578 3.37791C57.3626 2.26576 57.3702 1.15365 57.3793 0.0415286C58.4566 0.0415286 59.0829 0.44142 59.9862 0.964404C60.1596 1.06277 60.3329 1.16114 60.5115 1.26249C60.8887 1.47659 61.2654 1.69145 61.6417 1.90697C62.2391 2.24804 62.8386 2.58517 63.4388 2.92121C67.513 5.20423 71.5482 7.55172 75.5477 9.96276C76.635 10.6161 77.7323 11.2395 78.8526 11.8349C79.6153 12.2548 80.3586 12.704 81.1034 13.1546C82.2246 13.8321 83.3536 14.4834 84.5078 15.1037C86.7294 16.2989 88.9353 17.5007 91.0474 18.8821C91.5866 19.2155 92.1314 19.4934 92.7034 19.7663C93.8942 20.337 94.9397 21.0782 96 21.8599C95.2124 22.7726 94.2616 23.2572 93.2138 23.8159C91.9726 24.4852 90.7513 25.1752 89.5446 25.9048C88.2235 26.695 86.8831 27.4527 85.5469 28.2171C85.1642 28.4362 84.7816 28.6558 84.3991 28.8753C84.174 29.0043 83.9488 29.1332 83.7168 29.266C83.2262 29.5293 83.2262 29.5293 82.9793 29.7939C82.9515 30.2556 82.9394 30.7182 82.9332 31.1807C82.9311 31.3254 82.9289 31.4702 82.9267 31.6194C82.9201 32.1005 82.9154 32.5816 82.9112 33.0627C82.909 33.3088 82.909 33.3088 82.9068 33.5598C82.8996 34.4282 82.8942 35.2966 82.8899 36.165C82.886 36.8844 82.8783 37.6037 82.8673 38.323C82.854 39.1907 82.8472 40.0582 82.8451 40.9259C82.8432 41.2568 82.839 41.5876 82.8326 41.9184C82.824 42.3818 82.8237 42.8446 82.8255 43.308C82.8232 43.5716 82.8209 43.8352 82.8186 44.1068C82.9203 44.841 82.9203 44.841 83.62 45.2873C83.8455 45.4109 84.0711 45.5345 84.3035 45.6619C85.091 46.3173 85.4145 46.8597 85.6276 47.8657C85.6 48.6439 85.4755 49.393 85.2578 50.1419C85.161 50.9381 85.3772 51.4555 85.6552 52.2055C85.705 52.3437 85.7548 52.4819 85.8061 52.6243C85.9648 53.0639 86.1268 53.5021 86.2897 53.9402C86.4524 54.3791 86.6142 54.8182 86.7732 55.2584C86.9172 55.6574 87.0645 56.0551 87.2121 56.4528C87.3891 57.1072 87.4393 57.3914 87.1724 58.0036C85.7886 59.3461 83.8483 59.9584 81.9483 60C79.8136 59.8444 78.2085 59.1531 76.5793 57.7832C76.6819 56.5901 77.0228 55.6048 77.4584 54.4925C78.2555 52.4404 78.7153 50.823 78.4384 48.6311C78.3062 47.5106 78.4246 46.8667 79.0914 45.9589C79.4483 45.6619 79.4483 45.6619 80.5517 45.2211C80.6245 40.5665 80.6974 35.9119 80.7724 31.1162C79.203 31.9711 77.6646 32.8379 76.1379 33.7609C74.6667 34.6425 74.6667 34.6425 74.1517 34.6425C74.1559 34.9011 74.1559 34.9011 74.1601 35.165C74.1864 36.8112 74.2124 38.4574 74.2381 40.1036C74.2512 40.9494 74.2645 41.7952 74.2781 42.641C74.3063 44.4002 74.3328 46.1594 74.3548 47.9187C74.3663 48.809 74.3829 49.699 74.4026 50.5892C74.4088 50.9819 74.4148 51.3746 74.4207 51.7673C74.4258 51.9356 74.4309 52.1039 74.4362 52.2774C74.4488 53.5311 74.2178 54.6172 73.3198 55.5397C69.7926 57.7892 65.312 58.4982 61.2276 59.0504C61.0433 59.0759 60.8589 59.1014 60.669 59.1276C56.8561 59.5992 52.9885 59.5825 49.1531 59.575C48.4275 59.5739 47.7019 59.575 46.9763 59.5764C43.2933 59.5778 39.5875 59.5543 35.931 59.0642C35.7247 59.0368 35.5183 59.0093 35.3057 58.981C31.5551 58.4438 27.0307 57.7551 23.8345 55.5793C23.8345 55.5793 23.404 55.1549 23.3931 55.1385C22.8288 54.2887 22.884 53.3991 22.8814 52.4171C22.8791 52.2321 22.8769 52.0471 22.8746 51.8565C22.8678 51.2459 22.8641 50.6354 22.8603 50.0249C22.8562 49.6012 22.8519 49.1775 22.8474 48.7538C22.8361 47.6394 22.8273 46.5249 22.8191 45.4104C22.8103 44.2729 22.799 43.1354 22.7879 41.9979C22.7666 39.7665 22.7479 37.5351 22.731 35.3036C22.4758 35.2039 22.4758 35.2039 22.2155 35.1021C21.5895 34.8473 21.019 34.5446 20.4293 34.2146C20.2009 34.087 19.9725 33.9594 19.7372 33.8279C19.4962 33.6921 19.2552 33.5564 19.0069 33.4165C18.6339 33.2072 18.6339 33.2072 18.2533 32.9936C16.8196 32.1859 15.3958 31.3653 13.989 30.5117C12.9291 29.8686 11.8598 29.2431 10.7862 28.6231C10.611 28.5219 10.4358 28.4207 10.2553 28.3165C9.12708 27.6662 7.99535 27.0223 6.86234 26.3803C5.89693 25.8322 4.93441 25.2791 3.97241 24.725C3.7774 24.6133 3.58239 24.5017 3.38147 24.3867C2.81766 24.0622 2.25679 23.7332 1.69655 23.4027C1.52499 23.3047 1.35343 23.2066 1.17667 23.1057C0.706034 22.8241 0.706034 22.8241 0 22.3007C0 22.0098 0 21.7189 0 21.4192C0.969828 20.8811 1.93966 20.3431 2.90948 19.805C3.17387 19.6582 3.17387 19.6582 3.44359 19.5085C3.78893 19.317 4.13443 19.1258 4.48012 18.935C5.619 18.3055 6.74985 17.6635 7.87586 17.0114C8.05389 16.9085 8.23193 16.8055 8.41536 16.6994C9.82208 15.8842 11.2219 15.0576 12.6207 14.229C14.1595 13.3177 15.7053 12.4231 17.2681 11.5535C18.3024 10.9767 19.3253 10.3824 20.3448 9.77993C22.9696 8.2297 25.6171 6.71786 28.281 5.23555C30.6767 3.90126 33.0676 2.53157 35.369 1.03973C35.5249 0.938736 35.6808 0.837741 35.8414 0.733685C35.9786 0.642846 36.1159 0.552007 36.2573 0.458415C36.6345 0.261917 37.2966 0.041538 37.2966 0.041538C37.2966 0.191402 37.2966 -0.103918 37.2966 0.041538Z" fill="#146DC2"/>
<path d="M124.793 52.36H121.033C118.873 52.36 117.3 51.8533 116.313 50.84C115.327 49.8267 114.833 48.36 114.833 46.44V45.28C111.847 44.7467 109.473 43.2933 107.713 40.92C105.98 38.52 105.113 35.2267 105.113 31.04C105.113 28.6667 105.407 26.5867 105.993 24.8C106.58 22.9867 107.407 21.48 108.473 20.28C109.54 19.0533 110.833 18.1333 112.353 17.52C113.873 16.9067 115.553 16.6 117.393 16.6C119.233 16.6 120.913 16.9067 122.433 17.52C123.953 18.1333 125.247 19.0533 126.313 20.28C127.38 21.48 128.207 22.9867 128.793 24.8C129.38 26.5867 129.673 28.6667 129.673 31.04C129.673 35.0933 128.847 38.3067 127.193 40.68C125.567 43.0533 123.34 44.5467 120.513 45.16V47.4H124.793V52.36ZM117.393 40.08C119.233 40.08 120.66 39.48 121.673 38.28C122.713 37.08 123.233 35.36 123.233 33.12V28.96C123.233 26.72 122.713 25 121.673 23.8C120.66 22.6 119.233 22 117.393 22C115.553 22 114.113 22.6 113.073 23.8C112.06 25 111.553 26.72 111.553 28.96V33.12C111.553 35.36 112.06 37.08 113.073 38.28C114.113 39.48 115.553 40.08 117.393 40.08ZM146.828 41.48H146.628C146.441 42.0133 146.188 42.52 145.868 43C145.575 43.48 145.188 43.9067 144.708 44.28C144.228 44.6533 143.655 44.9467 142.988 45.16C142.348 45.3733 141.601 45.48 140.748 45.48C138.588 45.48 136.948 44.7733 135.828 43.36C134.735 41.92 134.188 39.8667 134.188 37.2V24H140.108V36.68C140.108 37.96 140.335 38.9467 140.788 39.64C141.241 40.3333 142.015 40.68 143.108 40.68C143.561 40.68 144.015 40.6133 144.468 40.48C144.921 40.3467 145.321 40.16 145.668 39.92C146.015 39.6533 146.295 39.3333 146.508 38.96C146.721 38.5867 146.828 38.1467 146.828 37.64V24H152.748V45H146.828V41.48ZM161.216 21.76C160.016 21.76 159.136 21.4933 158.576 20.96C158.043 20.4 157.776 19.6933 157.776 18.84V17.96C157.776 17.1067 158.043 16.4133 158.576 15.88C159.136 15.32 160.016 15.04 161.216 15.04C162.416 15.04 163.283 15.32 163.816 15.88C164.376 16.4133 164.656 17.1067 164.656 17.96V18.84C164.656 19.6933 164.376 20.4 163.816 20.96C163.283 21.4933 162.416 21.76 161.216 21.76ZM158.256 24H164.176V45H158.256V24ZM168.501 45V40.32L178.941 28.6H168.861V24H185.821V28.64L175.341 40.4H186.101V45H168.501ZM196.285 45C194.258 45 192.765 44.5067 191.805 43.52C190.871 42.5333 190.405 41.1067 190.405 39.24V15.4H196.325V40.4H198.965V45H196.285ZM215.12 24H220.64L212.56 48.24C212.026 49.8667 211.266 51.0667 210.28 51.84C209.32 52.6133 207.933 53 206.12 53H202.44V48.4H206.4L207.12 46.08L199.76 24H205.64L208.72 33.8L210.24 39.88H210.48L212.04 33.8L215.12 24Z" fill="black"/>
</svg>
