<svg width="1440" height="700" viewBox="0 0 1440 700" fill="none" xmlns="http://www.w3.org/2000/svg">
<g clip-path="url(#clip0_303_710)">
<rect width="1440" height="700" fill="url(#paint0_linear_303_710)"/>
<g filter="url(#filter0_f_303_710)">
<rect x="871.308" y="-123" width="537.947" height="768.344" transform="rotate(50.928 871.308 -123)" fill="#74B3FF"/>
</g>
<g clip-path="url(#clip1_303_710)">
<path fill-rule="evenodd" clip-rule="evenodd" d="M124.561 195.041L165 166.353L149.476 120.562H98.5237L83 166.353L83.5857 166.769V166.912H83.7882L124 195.439L124.551 195.048L124.558 195.05L124.561 195.041ZM123.729 193.853L132.774 166.912H85.7527L123.729 193.853ZM84.421 165.794H113.734L99.0924 122.516L84.421 165.794ZM100.041 121.68H147.49L109.002 148.17L100.041 121.68ZM148.789 122.166L125.002 138.537L163.268 164.874L148.789 122.166ZM163.221 166.221L125.175 193.212L139.677 150.017L163.221 166.221ZM109.381 149.289L114.965 165.794H133.15L138.677 149.329L124 139.227L109.381 149.289Z" fill="black"/>
<path fill-rule="evenodd" clip-rule="evenodd" d="M124.561 195.041L165 166.353L149.476 120.562H98.5237L83 166.353L83.5857 166.769V166.912H83.7882L124 195.439L124.551 195.048L124.558 195.05L124.561 195.041ZM123.729 193.853L132.774 166.912H85.7527L123.729 193.853ZM84.421 165.794H113.734L99.0924 122.516L84.421 165.794ZM100.041 121.68H147.49L109.002 148.17L100.041 121.68ZM148.789 122.166L125.002 138.537L163.268 164.874L148.789 122.166ZM163.221 166.221L125.175 193.212L139.677 150.017L163.221 166.221ZM109.381 149.289L114.965 165.794H133.15L138.677 149.329L124 139.227L109.381 149.289Z" fill="black" fill-opacity="0.2"/>
</g>
<path d="M1304.51 436.607C1304.51 413.634 1323.13 394.849 1346.19 394.849C1369.11 394.849 1387.86 413.507 1387.86 436.607C1387.86 459.58 1369.24 478.364 1346.19 478.364C1323.26 478.237 1304.51 459.58 1304.51 436.607ZM1383.81 436.607C1383.81 415.791 1366.96 398.911 1346.19 398.911C1325.41 398.911 1308.57 415.791 1308.57 436.607C1308.57 457.422 1325.41 474.303 1346.19 474.303C1366.96 474.303 1383.81 457.422 1383.81 436.607ZM1315.15 436.607C1315.15 419.472 1329.09 405.511 1346.19 405.511C1363.29 405.511 1377.22 419.472 1377.22 436.607C1377.22 453.741 1363.29 467.703 1346.19 467.703C1329.09 467.703 1315.15 453.741 1315.15 436.607ZM1373.29 436.607C1373.29 421.63 1361.13 409.445 1346.19 409.445C1331.24 409.445 1319.08 421.63 1319.08 436.607C1319.08 451.584 1331.24 463.768 1346.19 463.768C1361.13 463.641 1373.29 451.584 1373.29 436.607Z" fill="#9D9D9D"/>
<path d="M1294 421.758C1294 398.785 1312.62 380 1335.67 380C1358.6 380 1377.35 398.658 1377.35 421.758C1377.35 444.731 1358.73 463.515 1335.67 463.515C1312.62 463.388 1294 444.731 1294 421.758ZM1373.29 421.758C1373.29 400.942 1356.45 384.062 1335.67 384.062C1314.9 384.062 1298.05 400.942 1298.05 421.758C1298.05 442.573 1314.9 459.454 1335.67 459.454C1356.45 459.454 1373.29 442.446 1373.29 421.758ZM1304.51 421.758C1304.51 404.623 1318.45 390.662 1335.55 390.662C1352.65 390.662 1366.58 404.623 1366.58 421.758C1366.58 438.892 1352.65 452.854 1335.55 452.854C1318.45 452.854 1304.51 438.892 1304.51 421.758ZM1362.65 421.758C1362.65 406.781 1350.49 394.596 1335.55 394.596C1320.6 394.596 1308.44 406.781 1308.44 421.758C1308.44 436.735 1320.6 448.919 1335.55 448.919C1350.49 448.792 1362.65 436.608 1362.65 421.758Z" fill="black"/>
<path d="M1294 421.758C1294 398.785 1312.62 380 1335.67 380C1358.6 380 1377.35 398.658 1377.35 421.758C1377.35 444.731 1358.73 463.515 1335.67 463.515C1312.62 463.388 1294 444.731 1294 421.758ZM1373.29 421.758C1373.29 400.942 1356.45 384.062 1335.67 384.062C1314.9 384.062 1298.05 400.942 1298.05 421.758C1298.05 442.573 1314.9 459.454 1335.67 459.454C1356.45 459.454 1373.29 442.446 1373.29 421.758ZM1304.51 421.758C1304.51 404.623 1318.45 390.662 1335.55 390.662C1352.65 390.662 1366.58 404.623 1366.58 421.758C1366.58 438.892 1352.65 452.854 1335.55 452.854C1318.45 452.854 1304.51 438.892 1304.51 421.758ZM1362.65 421.758C1362.65 406.781 1350.49 394.596 1335.55 394.596C1320.6 394.596 1308.44 406.781 1308.44 421.758C1308.44 436.735 1320.6 448.919 1335.55 448.919C1350.49 448.792 1362.65 436.608 1362.65 421.758Z" fill="black" fill-opacity="0.2"/>
<g clip-path="url(#clip2_303_710)">
<path d="M289.712 643.249L304.594 653.98L319.476 643.249" stroke="black" stroke-width="2" stroke-miterlimit="10" stroke-linecap="round" stroke-linejoin="round"/>
<path d="M289.712 643.249L304.594 653.98L319.476 643.249" stroke="black" stroke-opacity="0.2" stroke-width="2" stroke-miterlimit="10" stroke-linecap="round" stroke-linejoin="round"/>
<path d="M230.236 643.195L245.118 653.927L260 643.249L274.83 653.98" stroke="black" stroke-width="2" stroke-miterlimit="10" stroke-linecap="round" stroke-linejoin="round"/>
<path d="M230.236 643.195L245.118 653.927L260 643.249L274.83 653.98" stroke="black" stroke-opacity="0.2" stroke-width="2" stroke-miterlimit="10" stroke-linecap="round" stroke-linejoin="round"/>
<path d="M200.524 643.195L215.354 653.927" stroke="black" stroke-width="2" stroke-miterlimit="10" stroke-linecap="round" stroke-linejoin="round"/>
<path d="M200.524 643.195L215.354 653.927" stroke="black" stroke-opacity="0.2" stroke-width="2" stroke-miterlimit="10" stroke-linecap="round" stroke-linejoin="round"/>
<path d="M274.83 644.322L289.712 633.59L304.594 644.322L319.476 633.59" stroke="black" stroke-width="2" stroke-miterlimit="10" stroke-linecap="round" stroke-linejoin="round"/>
<path d="M274.83 644.322L289.712 633.59L304.594 644.322L319.476 633.59" stroke="black" stroke-opacity="0.2" stroke-width="2" stroke-miterlimit="10" stroke-linecap="round" stroke-linejoin="round"/>
<path d="M200.524 633.537L215.406 644.268L230.236 633.537L245.118 644.268L260 633.59" stroke="black" stroke-width="2" stroke-miterlimit="10" stroke-linecap="round" stroke-linejoin="round"/>
<path d="M200.524 633.537L215.406 644.268L230.236 633.537L245.118 644.268L260 633.59" stroke="black" stroke-opacity="0.2" stroke-width="2" stroke-miterlimit="10" stroke-linecap="round" stroke-linejoin="round"/>
</g>
</g>
<defs>
<filter id="filter0_f_303_710" x="-325.199" y="-723" width="2135.57" height="2101.92" filterUnits="userSpaceOnUse" color-interpolation-filters="sRGB">
<feFlood flood-opacity="0" result="BackgroundImageFix"/>
<feBlend mode="normal" in="SourceGraphic" in2="BackgroundImageFix" result="shape"/>
<feGaussianBlur stdDeviation="300" result="effect1_foregroundBlur_303_710"/>
</filter>
<linearGradient id="paint0_linear_303_710" x1="761.5" y1="700" x2="762.668" y2="-0.00222701" gradientUnits="userSpaceOnUse">
<stop stop-color="#DCECFF"/>
<stop offset="1" stop-color="#F5FAFF"/>
</linearGradient>
<clipPath id="clip0_303_710">
<rect width="1440" height="700" fill="white"/>
</clipPath>
<clipPath id="clip1_303_710">
<rect width="82" height="76" fill="white" transform="translate(83 120)"/>
</clipPath>
<clipPath id="clip2_303_710">
<rect width="120" height="22" fill="white" transform="translate(200 633)"/>
</clipPath>
</defs>
</svg>
