<svg width="24" height="24" viewBox="0 0 24 24" fill="none" xmlns="http://www.w3.org/2000/svg">
<path d="M21.0004 11H15.9994C14.3424 11 12.9994 12.343 12.9994 14V21.001C12.9994 22.657 14.3424 24 15.9984 24.001L20.9984 24.004C22.6554 24.004 24.0004 22.661 24.0004 21.004V14.001C24.0004 12.344 22.6574 11.001 21.0004 11.001V11ZM16.9994 13.997H19.9994C20.5514 13.997 20.9994 14.445 20.9994 14.997C20.9994 15.549 20.5514 15.997 19.9994 15.997H16.9994C16.4474 15.997 15.9994 15.549 15.9994 14.997C15.9994 14.445 16.4474 13.997 16.9994 13.997ZM19.9994 20H16.9994C16.4474 19.999 15.9994 19.551 15.9994 18.999C15.9994 18.445 16.4474 17.997 16.9994 17.997H19.9994C20.5514 17.997 20.9994 18.445 20.9994 18.997V19C20.9994 19.552 20.5514 20 19.9994 20ZM9.00036 12C12.3094 12 15.0004 9.309 15.0004 6C15.0004 2.691 12.3094 0 9.00036 0C5.69136 0 3.00036 2.691 3.00036 6C3.00036 9.309 5.69136 12 9.00036 12ZM9.00036 3C10.6544 3 12.0004 4.346 12.0004 6C12.0004 7.654 10.6544 9 9.00036 9C7.34636 9 6.00036 7.654 6.00036 6C6.00036 4.346 7.34636 3 9.00036 3ZM11.0004 15.472C11.0164 16.3 10.3564 16.984 9.52836 16.999L8.48136 17.019C5.58536 17.229 3.19336 19.629 2.99736 22.599C2.94436 23.392 2.28436 24 1.50236 24C1.46836 24 1.43536 24 1.40036 23.997C0.574364 23.942 -0.0516361 23.228 0.00336387 22.401C0.299364 17.944 3.88536 14.343 8.34636 14.024L9.47236 14.001C10.3174 13.953 10.9854 14.643 11.0004 15.472Z" fill="black"/>
</svg>
