<svg viewBox="0 0 648 408" fill="none" xmlns="http://www.w3.org/2000/svg" xmlns:anim="http://www.w3.org/2000/anim" anim="" anim:transform-origin="50% 50%" anim:duration="1" anim:ease="ease-in-out">
  <g id="logo">
    <path id="Vector" d="M253.309 4.41885C256.711 4.41885 257.168 4.41878 260.673 4.41878C261.674 3.91799 259.701 4.90485 260.673 4.41878C260.684 5.22954 260.695 6.0403 260.706 6.87562C260.808 15.3354 260.816 23.7917 260.772 32.2519C260.767 35.4063 260.786 38.5609 260.829 41.7151C260.887 46.2585 260.86 50.7948 260.817 55.3382C260.853 56.7424 260.889 58.1467 260.926 59.5934C260.8 65.4756 260.714 69.2032 256.409 73.4609C253.014 75.7577 249.601 77.6886 245.945 79.5379C244.585 80.3565 243.224 81.1751 241.822 82.0184C240.093 82.9836 240.093 82.9836 238.329 83.9682C236.34 85.0844 236.34 85.0844 234.311 86.2233C232.926 86.9942 231.541 87.7652 230.114 88.5596C227.097 90.2525 224.081 91.946 221.064 93.64C219.556 94.4856 218.047 95.3313 216.493 96.2025C209.88 99.9179 203.287 103.668 196.701 107.431C195.455 108.143 194.209 108.855 192.925 109.589C181.417 116.178 169.973 122.874 158.529 129.572C146.506 136.597 134.406 143.472 122.236 150.238C126.929 153.945 131.846 156.891 137.05 159.83C137.911 160.318 138.773 160.807 139.661 161.311C142.411 162.871 145.163 164.426 147.917 165.98C160.201 172.915 172.365 179.971 184.329 187.447C189.499 190.613 194.784 193.509 200.124 196.376C203.635 198.267 207.136 200.172 210.629 202.096C211.647 202.656 212.666 203.217 213.716 203.795C215.958 205.043 218.192 206.308 220.413 207.594C226.377 211.025 232.252 214.075 238.644 216.63C246.357 219.947 253.61 223.346 259.2 229.776C263.649 240.986 261.83 253.654 260.949 265.403C260.808 268.663 260.681 271.925 260.566 275.187C260.26 283.138 259.793 291.068 259.2 299.004C253.696 298.156 249.765 296.648 245.013 293.768C243.702 292.982 242.39 292.196 241.038 291.386C239.681 290.558 238.324 289.73 236.925 288.877C234.284 287.284 231.641 285.692 228.998 284.102C227.568 283.24 226.138 282.379 224.664 281.491C213.673 274.921 202.548 268.575 191.455 262.18C191.516 272.508 191.623 282.834 191.76 293.16C191.802 296.672 191.833 300.183 191.854 303.695C191.885 308.749 191.954 313.8 192.03 318.854C192.033 321.202 192.033 321.202 192.035 323.597C192.211 332.532 192.86 337.854 198.818 344.664C217.899 360.263 253.386 361.209 276.873 363.812C278.004 363.953 279.136 364.094 280.301 364.239C295.167 365.885 310.168 365.645 325.105 365.653C326.606 365.654 328.107 365.655 329.654 365.656C398.245 366.672 398.245 366.672 460.964 343.191C465.239 338.567 465.947 335.43 466.019 329.194C466.062 326.762 466.062 326.762 466.107 324.281C466.116 322.539 466.126 320.798 466.135 319.003C466.162 317.213 466.188 315.424 466.216 313.58C466.295 307.862 466.345 302.144 466.394 296.426C466.443 292.55 466.494 288.674 466.547 284.798C466.672 275.295 466.773 265.792 466.855 256.289C465.341 257.143 463.828 257.998 462.27 258.878C443.732 269.333 443.732 269.333 434.875 274.113C424.344 279.826 414.075 285.986 403.778 292.105C402.265 292.996 400.753 293.886 399.195 294.803C397.152 296.015 397.152 296.015 395.067 297.251C391.745 299.004 391.745 299.004 388.8 299.004C387.118 295.64 387.124 293.719 387.09 289.979C387.076 288.726 387.062 287.472 387.047 286.181C387.038 284.146 387.038 284.146 387.028 282.071C387.02 280.68 387.011 279.288 387.003 277.855C386.989 274.91 386.979 271.964 386.973 269.018C386.959 264.505 386.913 259.993 386.867 255.48C386.857 252.622 386.85 249.763 386.844 246.905C386.826 245.551 386.808 244.198 386.789 242.804C386.796 240.916 386.796 240.916 386.802 238.991C386.797 237.884 386.792 236.778 386.786 235.638C387.482 231.888 388.827 230.689 391.745 228.303C394.65 226.368 397.602 224.504 400.582 222.688C402.131 221.736 403.68 220.785 405.276 219.805C410.983 216.408 416.824 213.27 422.661 210.105C430.576 205.776 438.405 201.297 446.236 196.819C447.113 196.319 447.99 195.818 448.893 195.302C465.832 185.617 482.64 175.72 499.404 165.738C500.863 164.87 502.321 164.002 503.824 163.108C506.689 161.39 509.545 159.656 512.393 157.909C513.718 157.098 515.044 156.287 516.41 155.451C517.578 154.729 518.746 154.007 519.95 153.263C522.818 151.711 522.818 151.711 525.764 151.711C525.764 150.739 525.764 149.767 525.764 148.765C524.59 148.439 523.417 148.112 522.208 147.776C515.383 145.247 509.393 141.751 503.12 138.087C501.769 137.306 500.417 136.525 499.025 135.72C494.677 133.205 490.338 130.677 486 128.144C484.604 127.33 483.208 126.515 481.77 125.676C476.041 122.332 470.314 118.988 464.59 115.637C456.391 110.844 448.171 106.091 439.92 101.39C439.012 100.873 438.103 100.355 437.168 99.8219C432.77 97.3173 428.37 94.8176 423.967 92.3239C415.523 87.5235 407.121 82.6571 398.804 77.6392C397.238 76.6982 395.672 75.7571 394.059 74.7876C390.273 72.1733 390.273 72.1733 387.327 67.7545C386.973 64.8187 386.973 64.8187 386.993 61.4389C386.993 60.1712 386.993 58.9035 386.994 57.5974C387.009 56.2348 387.024 54.8722 387.04 53.4683C387.046 51.369 387.046 51.369 387.052 49.2272C387.069 44.7548 387.106 40.2828 387.143 35.8105C387.158 32.7793 387.171 29.7481 387.183 26.7169C387.216 19.284 387.267 11.8515 387.327 4.41878C394.516 4.41878 398.696 7.09139 404.724 10.5867C405.881 11.2441 407.038 11.9015 408.23 12.5788C410.746 14.0098 413.26 15.4457 415.771 16.8861C419.758 19.1656 423.758 21.4188 427.764 23.6646C454.953 38.9227 481.88 54.6118 508.571 70.7255C515.826 75.0918 523.149 79.2583 530.625 83.2375C535.715 86.0443 540.675 89.0459 545.645 92.0578C553.127 96.5855 560.661 100.939 568.363 105.084C583.189 113.072 597.91 121.104 612.004 130.337C615.603 132.565 619.238 134.422 623.056 136.245C631.002 140.06 637.979 145.014 645.055 150.238C639.799 156.338 633.454 159.577 626.461 163.31C618.179 167.784 610.028 172.395 601.976 177.272C593.16 182.553 584.215 187.616 575.298 192.725C572.744 194.19 570.191 195.657 567.639 197.124C566.136 197.986 564.633 198.848 563.085 199.735C559.811 201.495 559.811 201.495 558.164 203.264C557.978 206.349 557.897 209.441 557.856 212.532C557.842 213.499 557.827 214.467 557.813 215.464C557.768 218.679 557.737 221.894 557.709 225.11C557.695 226.754 557.695 226.754 557.68 228.432C557.632 234.236 557.596 240.04 557.567 245.843C557.541 250.652 557.49 255.459 557.416 260.266C557.328 266.065 557.282 271.863 557.268 277.662C557.255 279.874 557.228 282.085 557.184 284.295C557.127 287.393 557.126 290.485 557.137 293.583C557.122 295.344 557.107 297.106 557.091 298.921C557.77 303.828 557.77 303.828 562.439 306.811C563.944 307.637 565.449 308.463 567 309.314C572.256 313.695 574.414 317.32 575.836 324.043C575.652 329.244 574.821 334.25 573.368 339.255C572.723 344.577 574.166 348.035 576.02 353.047C576.353 353.971 576.685 354.895 577.028 355.846C578.086 358.784 579.168 361.713 580.255 364.641C581.34 367.574 582.421 370.509 583.481 373.451C584.442 376.117 585.426 378.775 586.41 381.433C587.591 385.807 587.926 387.706 586.145 391.798C576.911 400.77 563.962 404.862 551.283 405.14C537.038 404.101 526.327 399.48 515.455 390.325C516.139 382.351 518.414 375.766 521.321 368.332C526.64 354.617 529.709 343.808 527.861 329.159C526.978 321.67 527.769 317.366 532.218 311.299C534.6 309.314 534.6 309.314 541.964 306.368C542.45 275.26 542.936 244.152 543.436 212.101C532.963 217.814 522.697 223.607 512.509 229.776C502.691 235.668 502.691 235.668 499.255 235.668C499.282 237.397 499.282 237.397 499.31 239.16C499.486 250.162 499.66 261.164 499.831 272.167C499.919 277.819 500.007 283.472 500.098 289.125C500.286 300.882 500.463 312.639 500.61 324.397C500.686 330.347 500.797 336.296 500.929 342.245C500.97 344.869 501.01 347.494 501.049 350.119C501.084 351.244 501.118 352.369 501.153 353.528C501.237 361.907 499.696 369.165 493.703 375.331C470.165 390.365 440.265 395.103 413.008 398.794C411.778 398.964 410.548 399.135 409.28 399.31C383.836 402.462 358.026 402.35 332.431 402.3C327.589 402.292 322.747 402.3 317.905 402.31C293.327 402.319 268.598 402.162 244.197 398.886C242.82 398.703 241.442 398.519 240.024 398.33C214.994 394.74 184.802 390.137 163.473 375.596C163.473 375.596 160.6 372.759 160.527 372.65C156.762 366.97 157.13 361.025 157.112 354.461C157.097 353.225 157.083 351.988 157.067 350.715C157.022 346.634 156.997 342.554 156.972 338.473C156.944 335.642 156.916 332.81 156.886 329.979C156.81 322.53 156.752 315.082 156.697 307.633C156.638 300.031 156.563 292.429 156.489 284.827C156.346 269.913 156.222 255 156.109 240.087C154.406 239.42 154.406 239.42 152.669 238.74C148.491 237.037 144.684 235.014 140.749 232.808C139.225 231.955 137.701 231.103 136.13 230.224C134.522 229.317 132.914 228.409 131.257 227.475C128.768 226.075 128.768 226.075 126.228 224.648C116.66 219.25 107.159 213.766 97.771 208.061C90.6982 203.763 83.562 199.582 76.3977 195.439C75.2286 194.762 74.0596 194.086 72.8551 193.389C65.3259 189.043 57.7735 184.74 50.2126 180.449C43.7702 176.786 37.3469 173.09 30.9273 169.386C29.6259 168.64 28.3245 167.894 26.9837 167.125C23.2213 164.957 19.4784 162.758 15.7398 160.549C14.5949 159.894 13.45 159.239 12.2705 158.564C9.12976 156.682 9.12976 156.682 4.41818 153.184C4.41818 151.24 4.41818 149.296 4.41818 147.292C10.8901 143.696 17.3621 140.1 23.834 136.504C25.5983 135.524 25.5983 135.524 27.3983 134.523C29.7028 133.243 32.0085 131.965 34.3153 130.69C41.9154 126.483 49.4619 122.192 56.9761 117.834C58.1642 117.146 59.3523 116.458 60.5763 115.749C69.9638 110.301 79.305 104.776 88.6398 99.2383C98.9084 93.1476 109.225 87.1688 119.653 81.3571C126.556 77.5021 133.382 73.5302 140.185 69.5036C157.701 59.1429 175.369 49.0389 193.146 39.1321C209.133 30.2146 225.088 21.0605 240.446 11.0901C241.486 10.4151 242.526 9.74013 243.598 9.04469C244.514 8.43758 245.43 7.83047 246.374 7.20497C248.891 5.89171 253.309 4.41885 253.309 4.41885C253.309 5.42044 253.309 3.44672 253.309 4.41885Z" fill="#146DC2" anim:opacity="0[0:0.5:1:ease-in-out][0.6:1:0:ease-in-out]" anim:scale="0.4[0:0.2:1:ease-in-out]"></path>
    <path id="Vector_2" d="M375.545 4.41882C376.031 4.41882 376.517 4.41882 377.018 4.41882C380.269 77.6906 380.269 77.6906 362.921 105.477C359.548 111.123 357.099 117.12 354.559 123.173C351.206 130.836 347.671 138.36 343.882 145.82C340.215 153.039 336.815 160.314 333.573 167.729C327.017 182.721 320.016 197.501 313.018 212.29C307.866 223.201 302.862 234.157 298.107 245.247C294.668 253.225 290.793 260.908 286.842 268.642C283.343 275.636 280.318 282.847 277.327 290.071C274.24 297.374 274.24 297.374 270.982 299.004C270.602 289.503 270.348 280.003 270.173 270.496C270.1 267.278 270 264.06 269.871 260.843C268.958 237.49 272.33 221.019 283.912 200.659C286.658 195.635 288.856 190.412 291.048 185.128C294.385 177.346 297.976 169.752 301.817 162.206C309.25 147.592 315.766 132.588 322.251 117.535C327.08 106.354 332.194 95.447 337.721 84.5896C341.028 77.85 343.894 70.9527 346.799 64.032C349.001 58.999 351.406 54.1372 353.915 49.251C359.195 38.9126 363.712 28.2976 368.152 17.5741C368.956 15.6533 368.956 15.6533 369.775 13.6936C370.487 11.9699 370.487 11.9699 371.212 10.2113C372.6 7.36467 372.6 7.36467 375.545 4.41882Z" fill="#146EC2" anim:opacity="0[0:0.5:1:ease-in-out][0.6:1:0:ease-in-out]" anim:scale="0.6[0:0.2:1:ease-in-out]"></path>
  </g>
</svg>