<svg width="137" height="29" viewBox="0 0 137 29" fill="none" xmlns="http://www.w3.org/2000/svg">
<path d="M51.7834 23.4704C52.8381 22.5359 53.8521 21.6003 55.0286 20.5383C55.2316 20.6658 55.6376 21.006 56.0833 21.3026C59.369 23.5969 62.8183 24.2348 66.5507 22.5773C67.6459 22.1096 68.2956 21.2601 68.3362 19.9429C68.3768 18.5832 67.4845 17.8613 66.5507 17.436C64.6038 16.5441 62.534 15.8637 60.5465 15.1418C58.4372 14.42 56.4487 13.5695 54.8662 11.8695C52.6757 9.53275 52.7975 5.53857 54.785 3.15823C57.3003 0.183596 60.6673 -0.240593 64.2383 0.0985454C66.9973 0.396221 69.3096 1.67091 71.419 3.45591C72.0686 4.00873 72.23 4.43292 71.5002 5.0708C70.8109 5.66615 70.2019 6.34549 69.5929 7.02589C69.2274 7.45114 68.9432 7.5362 68.4976 7.06842C66.9151 5.32595 64.887 4.60409 62.736 4.47651C61.4378 4.43398 60.0583 4.81671 58.8818 5.411C57.3399 6.13286 57.2993 8.42816 58.8006 9.19255C60.6267 10.127 62.6142 10.8074 64.5622 11.5293C66.7933 12.3362 69.066 13.1017 70.8505 14.8867C73.6095 17.6487 73.4471 22.3647 70.6881 25.0002C67.9698 27.5921 64.684 28.315 61.0317 27.8898C57.9073 27.5496 55.2296 26.3174 52.7548 24.3209C52.5924 24.1933 52.4706 24.0657 52.3488 23.9381C52.1082 23.9371 52.027 23.768 51.7834 23.4704Z" fill="#FD8C14"/>
<path d="M20.3017 20.4531C21.3563 21.5152 22.3704 22.5347 23.3854 23.5553C18.7608 28.9518 10.6869 29.7587 5.16897 25.0427C-1.52543 19.3911 -1.48584 9.83035 3.95088 4.17875C9.42821 -1.60041 18.3537 -1.30274 23.3844 4.56148C22.3298 5.58102 21.3157 6.60056 20.1788 7.66369C18.3933 5.75112 15.9998 4.47643 13.2002 4.60401C10.8067 4.73158 8.61615 5.7086 6.99305 7.53611C3.54485 11.5303 3.94987 16.6716 6.42461 19.8588C9.347 23.6829 15.0679 25.3818 20.3017 20.4531Z" fill="#1E1D5C"/>
<path d="M105.217 27.6346C103.878 27.6346 102.539 27.6346 101.119 27.6346C101.079 26.9967 101.038 26.4024 100.957 25.5955C99.5772 26.8702 98.1977 27.6771 96.4934 28.0173C94.4653 28.3575 92.6392 27.8472 90.9755 26.8277C87.9729 24.9151 86.634 22.0691 86.634 18.4141C86.5934 14.9727 87.7293 12.0831 90.3665 10.1706C93.4503 7.91887 97.0609 7.66372 100.428 10.3832C100.55 10.5108 100.712 10.5958 100.956 10.851C101.037 10.1716 101.078 9.61881 101.159 9.02346C102.538 9.02346 103.836 9.02346 105.257 9.02346C105.217 15.0992 105.217 21.3026 105.217 27.6346ZM95.8854 23.4278C98.685 23.7255 101.079 20.7934 101.079 18.1589C101.038 15.4394 98.685 12.8475 96.0478 12.8901C93.1264 12.9326 90.8953 15.567 90.8953 18.1589C90.8547 20.8784 93.2483 23.6829 95.8854 23.4278Z" fill="#FD8C14"/>
<path d="M29.835 10.4246C32.1879 8.55459 34.5003 7.96031 37.0562 8.59712C39.5716 9.235 41.6809 11.5292 41.9651 14.2487C42.1681 16.4579 42.1681 18.7107 42.2087 20.9198C42.2493 23.0865 42.2087 25.2542 42.2087 27.4209C42.2087 27.5059 42.1681 27.5485 42.1275 27.676C40.7886 27.676 39.4498 27.676 37.9079 27.676C37.9079 27.2933 37.9079 26.9116 37.9079 26.4864C37.9079 23.5543 37.9485 20.6222 37.9079 17.6911C37.8673 16.459 37.8267 15.1843 36.975 14.1647C35.6767 12.5924 34.3378 12.4223 32.4315 13.0176C30.9709 13.4854 29.8756 15.2268 29.8756 16.9267C29.8756 20.0715 29.8756 23.2577 29.8756 26.4024C29.8756 26.8276 29.8756 27.2518 29.8756 27.7196C28.3337 27.7196 26.9136 27.7196 25.4123 27.7196C25.4123 18.7117 25.4123 9.70277 25.4123 0.609833C26.873 0.609833 28.2931 0.609833 29.8756 0.609833C29.835 3.7535 29.835 6.94076 29.835 10.4246Z" fill="#1E1D5C"/>
<path d="M121.121 24.8726C121.851 23.8956 122.541 22.9601 123.312 22.1106C123.434 21.9831 123.961 22.0256 124.204 22.1957C125.868 23.3428 127.612 24.1083 129.641 23.8956C130.169 23.8531 130.777 23.7681 131.183 23.5129C131.629 23.2152 132.237 22.6635 132.237 22.2382C132.237 21.7279 131.75 20.9635 131.305 20.7934C129.763 20.1141 128.14 19.7739 126.599 19.0935C125.382 18.5832 124.043 18.0314 123.069 17.1384C121.082 15.3534 121.446 11.5718 123.597 10.042C126.64 7.87534 129.885 7.91787 133.213 9.32013C134.227 9.74539 135.16 10.3822 136.256 11.0201C135.445 12.0821 134.795 12.8901 134.187 13.7396C133.781 14.2924 133.458 14.0372 132.97 13.7396C131.225 12.635 129.4 12.0396 127.371 12.7625C126.925 12.9326 126.601 13.4844 126.195 13.8671C126.56 14.2924 126.884 14.8867 127.371 15.0568C129.157 15.6947 131.022 16.1188 132.767 16.7567C136.175 17.9889 137.351 20.9635 136.337 24.0232C135.526 26.445 133.416 27.422 131.144 27.8898C128.06 28.5277 125.221 27.8048 122.584 26.0623C122.095 25.7646 121.648 25.3394 121.121 24.8726Z" fill="#FD8C14"/>
<path d="M110.572 3.83862C112.155 3.83862 113.534 3.83862 115.036 3.83862C115.036 5.49604 115.036 7.11093 115.036 8.80981C116.537 8.80981 117.916 8.80981 119.377 8.80981C119.377 10.3397 119.377 11.7419 119.377 13.3143C117.998 13.3143 116.577 13.3143 115.076 13.3143C115.076 16.3314 114.995 19.1785 115.117 21.983C115.198 23.4704 116.537 24.0646 118.362 23.6405C118.687 23.5554 118.971 23.5129 119.457 23.3853C119.457 24.745 119.498 25.9772 119.417 27.1669C119.417 27.3795 119.132 27.7622 118.929 27.8047C116.779 28.1875 114.669 28.3576 112.682 27.1254C111.668 26.4875 111.099 25.553 110.977 24.4484C110.693 21.9416 110.612 19.4347 110.49 16.8853C110.449 15.7382 110.49 14.5911 110.49 13.3164C109.354 13.3164 108.34 13.3164 107.245 13.3164C107.245 11.7866 107.245 10.3843 107.245 8.93951C107.893 8.85446 108.543 8.76941 109.192 8.64184C110.125 8.47174 110.571 7.87745 110.531 6.85684C110.532 5.92129 110.572 4.90175 110.572 3.83862Z" fill="#FD8C14"/>
<path d="M76.2478 13.3142C75.0713 13.3142 74.0572 13.3142 73.0026 13.3142C73.0026 11.8269 73.0026 10.4247 73.0026 8.93734C73.6116 8.89482 74.179 8.89482 74.7475 8.80977C75.8427 8.59714 76.3706 7.96033 76.2488 6.72816C76.1676 5.8362 76.2488 4.90064 76.2488 3.8811C77.7501 3.8811 79.1701 3.8811 80.712 3.8811C80.712 5.45347 80.712 7.06836 80.712 8.85229C82.2539 8.85229 83.6334 8.85229 85.1347 8.85229C85.1347 10.4247 85.1347 11.8269 85.1347 13.3568C83.674 13.3568 82.2945 13.3568 80.7932 13.3568C80.7932 15.5234 80.7932 17.521 80.7932 19.5601C80.7932 20.113 80.7932 20.6222 80.7932 21.175C80.7932 23.3417 81.8885 24.1497 84.079 23.6393C84.3227 23.5968 84.5663 23.5118 84.8089 23.4692C84.8901 23.4692 85.0119 23.5543 85.2149 23.5968C85.2149 24.7439 85.2555 25.8911 85.1743 27.0382C85.1337 27.3358 84.7683 27.8026 84.4851 27.8876C82.6183 28.2703 80.7932 28.2703 79.0077 27.4624C77.2628 26.698 76.6142 25.1256 76.4924 23.3831C76.33 20.4936 76.33 17.6465 76.2488 14.7569C76.2478 14.2923 76.2478 13.9096 76.2478 13.3142Z" fill="#FD8C14"/>
<path d="M49.9589 8.896C49.9589 15.1844 49.9589 21.3463 49.9589 27.5922C48.5794 27.5922 47.1999 27.5922 45.7392 27.5922C45.7392 21.3888 45.7392 15.1844 45.7392 8.896C47.1187 8.896 48.4982 8.896 49.9589 8.896Z" fill="#1E1D5C"/>
<path d="M50.4452 2.77661C50.4452 4.51908 49.4312 5.4961 47.7674 5.4961C46.4692 5.4961 45.1709 4.0513 45.2115 2.73409C45.2521 1.2893 46.5504 0.0571289 47.9705 0.0571289C49.3905 0.0571289 50.4452 1.20424 50.4452 2.77661Z" fill="#1E1D5C"/>
</svg>
