<svg width="97" height="97" viewBox="0 0 97 97" fill="none" xmlns="http://www.w3.org/2000/svg">
<path d="M92.7441 37.2722L88.4721 33.1134C88.7307 32.2202 88.9167 31.2906 88.9167 30.3125V10.1042C88.9167 4.53475 84.3819 0 78.8125 0H18.1875C12.6181 0 8.08333 4.53475 8.08333 10.1042V30.3125C8.08333 31.2906 8.26925 32.2202 8.52792 33.1174L4.25587 37.2722C1.552 39.9195 0 43.6055 0 47.3885V97H97V47.3845C97 43.6015 95.452 39.9155 92.7441 37.2722ZM12.125 10.1042C12.125 6.76171 14.845 4.04167 18.1875 4.04167H78.8125C82.155 4.04167 84.875 6.76171 84.875 10.1042V30.3125C84.875 33.655 82.155 36.375 78.8125 36.375H59.069L49.0739 44.6362C48.7465 44.9272 48.2494 44.9272 47.8857 44.5998L38.117 36.371H18.1875C14.845 36.371 12.125 33.6509 12.125 30.3085V10.1042ZM10.5205 36.8155C12.3756 38.998 15.1037 40.4167 18.1875 40.4167H36.6418L45.2384 47.6593C46.176 48.4919 47.3522 48.9082 48.5202 48.9082C49.6721 48.9082 50.8118 48.504 51.7091 47.7078L60.528 40.4207H78.8165C81.9003 40.4207 84.6325 39.0021 86.4876 36.8196C86.4876 36.8196 90.2423 40.5581 90.4121 40.7481L58.5112 72.653C52.9943 78.1658 44.0178 78.1739 38.505 72.653L6.596 40.744C6.76171 40.5541 10.5205 36.8155 10.5205 36.8155ZM92.9583 92.9583H4.04167V47.3885C4.04167 46.37 4.24779 45.3758 4.54688 44.4098L35.6394 75.5024C39.184 79.0469 43.844 80.8212 48.5 80.8212C53.156 80.8212 57.816 79.0469 61.3606 75.5024L92.4531 44.4058C92.7522 45.3677 92.9583 46.362 92.9583 47.3805V92.9583ZM39.3739 26.574L45.6425 20.3053L39.3739 14.0367L42.2314 11.1792L48.5 17.4479L54.7686 11.1792L57.6261 14.0367L51.3575 20.3053L57.6261 26.574L54.7686 29.4314L48.5 23.1628L42.2314 29.4314L39.3739 26.574ZM63.7007 26.574L69.9693 20.3053L63.7007 14.0367L66.5582 11.1792L72.8268 17.4479L79.0954 11.1792L81.9529 14.0367L75.6842 20.3053L81.9529 26.574L79.0954 29.4314L72.8268 23.1628L66.5582 29.4314L63.7007 26.574ZM15.2048 26.574L21.4734 20.3053L15.2048 14.0367L18.0622 11.1792L24.3308 17.4479L30.5995 11.1792L33.4569 14.0367L27.1883 20.3053L33.4569 26.574L30.5995 29.4314L24.3308 23.1628L18.0622 29.4314L15.2048 26.574Z" fill="black"/>
</svg>
