<svg width="414" height="442" viewBox="0 0 414 442" fill="none" xmlns="http://www.w3.org/2000/svg">
<path d="M404.967 441.552H77.4151C70.6934 441.552 65.2444 436.103 65.2444 429.381H413.122V433.398C413.121 437.901 409.471 441.552 404.967 441.552Z" fill="#31313B"/>
<path d="M80.1898 432.422L65.7657 432.917L0 125.058L12.3624 122.396L80.1898 432.422Z" fill="#31313B"/>
<path d="M12.3624 122.396L74.813 172.234L129.136 409.096L80.1555 432.265L12.3624 122.396Z" fill="#61616C"/>
<path d="M17.1836 130.258L74.0891 173.963L126.557 404.691L80.1898 419.353L17.1836 130.258Z" fill="#31313B"/>
<path d="M413.121 429.381L369.473 409.096H129.136L78.9699 432.433L413.121 429.381Z" fill="white"/>
<path d="M78.9699 432.6C78.8923 432.6 78.8248 432.546 78.8075 432.47C78.7902 432.394 78.8287 432.316 78.8998 432.283L129.066 408.945C129.088 408.935 129.112 408.93 129.136 408.93H369.474C369.498 408.93 369.522 408.935 369.543 408.945L413.192 429.231C413.262 429.263 413.301 429.341 413.284 429.417C413.268 429.493 413.201 429.547 413.123 429.548L78.9714 432.6C78.9708 432.6 78.9702 432.6 78.9699 432.6ZM129.173 409.262L79.7372 432.26L412.383 429.222L369.437 409.262L129.173 409.262Z" fill="#31313B"/>
<path d="M126.557 425.767H285.39L272.177 410.459H149.408L126.557 425.767Z" fill="#31313B"/>
<path d="M307.511 411.879H349.044C349.724 411.879 350.396 412.016 351.022 412.282L375.376 422.651C376.26 423.028 375.991 424.347 375.03 424.347H320.245C318.329 424.347 316.5 423.547 315.199 422.141L306.931 413.205C306.463 412.7 306.822 411.879 307.511 411.879Z" fill="white"/>
<path d="M375.03 424.513H320.245C318.289 424.513 316.405 423.69 315.077 422.254L306.809 413.318C306.546 413.035 306.48 412.639 306.634 412.286C306.789 411.932 307.125 411.712 307.511 411.712H349.044C349.75 411.712 350.437 411.852 351.087 412.129L375.441 422.497C375.986 422.729 376.144 423.255 376.058 423.673C375.973 424.091 375.622 424.513 375.03 424.513ZM307.511 412.045C307.21 412.045 307.018 412.238 306.939 412.419C306.86 412.6 306.848 412.872 307.053 413.093L315.321 422.028C316.586 423.396 318.381 424.18 320.244 424.18H375.029C375.461 424.18 375.678 423.871 375.732 423.607C375.786 423.342 375.707 422.973 375.31 422.804L350.956 412.436C350.348 412.177 349.705 412.045 349.044 412.045H307.511Z" fill="#31313B"/>
<path d="M169.407 409.647L153.432 426.872L153.92 427.324L169.895 410.099L169.407 409.647Z" fill="#EAEEF1"/>
<path d="M188.292 410.114L181.634 427.008L182.253 427.252L188.912 410.358L188.292 410.114Z" fill="#EAEEF1"/>
<path d="M208.967 409.874L208.304 409.925L209.634 427.152L210.298 427.101L208.967 409.874Z" fill="#EAEEF1"/>
<path d="M230.618 409.735L230.024 410.033L238.666 427.259L239.261 426.961L230.618 409.735Z" fill="#EAEEF1"/>
<path d="M251.857 409.893L251.311 410.275L263.235 427.344L263.781 426.963L251.857 409.893Z" fill="#EAEEF1"/>
<path d="M268.604 80.615V108.569C268.604 115.341 263.063 120.881 256.291 120.881C249.519 120.881 243.978 115.341 243.978 108.569V80.615C243.978 73.8428 249.519 68.3021 256.291 68.3021C259.679 68.3021 262.754 69.6865 264.987 71.9196C267.22 74.1524 268.604 77.2271 268.604 80.615Z" fill="#73B5FF"/>
<path d="M256.732 125.969H255.853C246.872 125.969 239.566 118.662 239.566 109.682C239.566 109.039 240.088 108.517 240.731 108.517C241.374 108.517 241.895 109.039 241.895 109.682C241.895 117.378 248.156 123.639 255.853 123.639H256.731C264.427 123.639 270.688 117.378 270.688 109.682C270.688 109.039 271.21 108.517 271.853 108.517C272.496 108.517 273.018 109.039 273.018 109.682C273.018 118.662 265.712 125.969 256.732 125.969Z" fill="#31313B"/>
<path d="M251.133 90.0991C251.133 90.2821 251.06 90.4484 250.937 90.5684C250.817 90.6914 250.651 90.7649 250.468 90.7649H243.978V89.4336H250.468C250.834 89.4333 251.133 89.7331 251.133 90.0991Z" fill="white"/>
<path d="M251.133 94.5916C251.133 94.7746 251.06 94.9412 250.937 95.0609C250.817 95.1839 250.651 95.2574 250.468 95.2574H243.978V93.9262H250.468C250.834 93.9262 251.133 94.2256 251.133 94.5916Z" fill="white"/>
<path d="M251.133 99.0841C251.133 99.2671 251.06 99.4334 250.937 99.5534C250.817 99.6767 250.651 99.7499 250.468 99.7499H243.978V98.4186H250.468C250.834 98.4186 251.133 98.7181 251.133 99.0841Z" fill="white"/>
<path d="M268.604 89.4333V90.7646H261.37C261.004 90.7646 260.704 90.4651 260.704 90.0991C260.704 89.9161 260.777 89.7495 260.901 89.6298C261.02 89.5068 261.187 89.4333 261.37 89.4333H268.604Z" fill="white"/>
<path d="M268.604 93.9261V95.2573H261.37C261.004 95.2573 260.704 94.9579 260.704 94.5919C260.704 94.4089 260.777 94.2426 260.901 94.1226C261.02 93.9996 261.187 93.9261 261.37 93.9261H268.604Z" fill="white"/>
<path d="M268.604 98.4186V99.7498H261.37C261.004 99.7498 260.704 99.4504 260.704 99.0844C260.704 98.9014 260.777 98.7351 260.901 98.615C261.02 98.492 261.187 98.4186 261.37 98.4186H268.604Z" fill="white"/>
<path d="M256.732 144.177C256.089 144.177 255.567 143.656 255.567 143.012V124.804C255.567 124.161 256.089 123.639 256.732 123.639C257.375 123.639 257.896 124.161 257.896 124.804V143.012C257.896 143.656 257.375 144.177 256.732 144.177Z" fill="#31313B"/>
<path d="M264.168 144.177H249.082C248.439 144.177 247.917 143.656 247.917 143.012C247.917 142.369 248.439 141.848 249.082 141.848H264.168C264.811 141.848 265.333 142.369 265.333 143.012C265.333 143.656 264.811 144.177 264.168 144.177Z" fill="#31313B"/>
<path d="M257.45 154.005C229.217 154.005 206.249 131.037 206.249 102.804C206.249 74.5718 229.217 51.603 257.45 51.603C285.682 51.603 308.651 74.5718 308.651 102.804C308.651 131.037 285.682 154.005 257.45 154.005ZM257.45 52.9342C229.951 52.9342 207.58 75.3059 207.58 102.804C207.58 130.302 229.951 152.674 257.45 152.674C284.948 152.674 307.32 130.302 307.32 102.804C307.32 75.3059 284.948 52.9342 257.45 52.9342Z" fill="#31313B"/>
<path d="M150.712 61.4971C133.757 61.4971 119.964 47.7034 119.964 30.7485C119.964 13.7936 133.758 0 150.712 0C167.667 0 181.461 13.7939 181.461 30.7485C181.461 47.7034 167.667 61.4971 150.712 61.4971ZM150.712 1.33121C134.491 1.33121 121.295 14.5277 121.295 30.7485C121.295 46.9693 134.491 60.1659 150.712 60.1659C166.933 60.1659 180.129 46.9693 180.129 30.7485C180.129 14.5277 166.933 1.33121 150.712 1.33121Z" fill="#31313B"/>
<path d="M159.693 39.3436H137.525C136.104 39.3436 134.941 38.1808 134.941 36.7597V23.4802C134.941 22.0591 136.104 20.8963 137.525 20.8963H159.693C161.114 20.8963 162.277 22.0591 162.277 23.4802V36.7597C162.277 38.1808 161.114 39.3436 159.693 39.3436Z" fill="#73B5FF"/>
<path d="M167.21 23.3927L162.277 25.5601V35.4649L167.349 37.2475C168.49 37.6485 169.792 37.0138 169.792 36.0569V24.5284C169.792 23.5193 168.358 22.8885 167.21 23.3927Z" fill="#31313B"/>
<path d="M270.695 288.832C296.883 262.643 296.883 220.184 270.695 193.996C244.507 167.808 202.048 167.808 175.86 193.996C149.672 220.184 149.672 262.643 175.86 288.832C202.048 315.02 244.507 315.02 270.695 288.832Z" fill="#EAEEF1"/>
<path d="M194.676 271.86L148.254 261.186L146.12 247.239L187.224 223.17L189.41 237.451L161.963 251.908L192.478 257.496L194.676 271.86Z" fill="#31313B"/>
<path d="M200.091 286.588L223.34 203.369L237.287 201.235L214.038 284.454L200.091 286.588Z" fill="#31313B"/>
<path d="M251.131 263.221L248.933 248.856L276.38 234.399L245.865 228.812L243.68 214.53L290.101 225.204L292.236 239.152L251.131 263.221Z" fill="#31313B"/>
<path d="M199.268 269.362L152.847 258.688L150.712 244.741L191.817 220.672L194.003 234.953L166.556 249.41L197.07 254.997L199.268 269.362Z" fill="white"/>
<path d="M200.074 270.231L152.257 259.235L149.986 244.394L192.327 219.602L194.732 235.321L168.569 249.102L197.656 254.428L200.074 270.231ZM153.436 258.141L198.462 268.494L196.483 255.567L164.542 249.718L193.273 234.585L191.307 221.741L151.438 245.087L153.436 258.141Z" fill="#31313B"/>
<path d="M204.684 284.09L227.933 200.871L241.88 198.736L218.631 281.955L204.684 284.09Z" fill="white"/>
<path d="M203.765 284.903L227.407 200.278L242.798 197.922L219.157 282.549L203.765 284.903ZM228.458 201.463L205.602 283.276L218.106 281.362L240.961 199.55L228.458 201.463Z" fill="#31313B"/>
<path d="M255.724 260.723L253.525 246.358L280.972 231.9L250.458 226.313L248.272 212.032L294.694 222.706L296.828 236.653L255.724 260.723Z" fill="white"/>
<path d="M255.214 261.792L252.796 245.99L278.959 232.208L249.871 226.883L247.466 211.164L295.283 222.159L297.555 237L255.214 261.792ZM254.255 246.725L256.233 259.653L296.102 236.308L294.105 223.254L249.079 212.9L251.044 225.744L282.985 231.592L254.255 246.725Z" fill="#31313B"/>
<path d="M284.358 47.5759L283.016 43.2031L289.162 38.5256L308.001 41.059L284.358 47.5759ZM283.7 43.4235L284.754 46.8546L305.056 41.2584L289.325 39.1429L283.7 43.4235Z" fill="#31313B"/>
<path d="M308.579 41.2638L280.939 36.8274L260.266 45.1897L308.579 41.2638Z" fill="#73B5FF"/>
<path d="M287.18 32.9297L308.579 41.2638L288.861 20.8965L287.18 32.9297Z" fill="#73B5FF"/>
<path d="M287.18 32.9297L288.993 38.1201L308.579 41.2638L287.18 32.9297Z" fill="#31313B"/>
<path d="M177.526 141.694C173.52 141.695 170.141 139.299 167.743 134.756C164.113 127.877 163.109 117.003 164.989 104.923C165.818 99.599 167.186 94.2572 169.03 89.0521C166.18 87.9967 163.208 87.373 160.168 87.2118C142.285 86.2648 127.816 98.2589 117.176 122.866L116.846 122.723C127.552 97.9633 142.135 85.8941 160.187 86.8524C163.261 87.0154 166.269 87.6459 169.151 88.7126C171.944 80.9254 175.802 73.4534 180.512 66.8201C189.74 53.823 201.835 44.1618 216.461 38.1049C233.632 30.9936 253.866 29.1265 276.603 32.555L276.549 32.9109C253.879 29.4922 233.709 31.3516 216.599 38.4375C202.037 44.4681 189.994 54.0875 180.806 67.0285C176.114 73.6367 172.27 81.0818 169.488 88.8395C175.217 91.035 180.442 94.9602 184.705 100.364C190.438 107.632 193.776 116.775 193.635 124.823C193.55 129.659 192.186 133.752 189.692 136.661C186.908 139.908 182.876 141.6 177.707 141.693C177.647 141.694 177.586 141.694 177.526 141.694ZM169.367 89.1789C167.531 94.3611 166.17 99.6781 165.345 104.978C163.476 116.984 164.466 127.776 168.061 134.587C170.427 139.07 173.757 141.404 177.7 141.333C182.762 141.242 186.704 139.592 189.418 136.427C191.858 133.583 193.191 129.568 193.275 124.817C193.415 116.85 190.106 107.792 184.422 100.587C180.203 95.2379 175.034 91.352 169.367 89.1789Z" fill="#31313B"/>
<path d="M115.021 438.745H99.0476C97.9493 438.745 97.051 437.846 97.051 436.748C97.051 435.65 97.9496 434.752 99.0476 434.752H115.021C116.119 434.752 117.018 435.65 117.018 436.748C117.018 437.846 116.119 438.745 115.021 438.745Z" fill="#61616C"/>
<path d="M139.203 438.745H123.229C122.131 438.745 121.232 437.846 121.232 436.748C121.232 435.65 122.131 434.752 123.229 434.752H139.203C140.301 434.752 141.199 435.65 141.199 436.748C141.199 437.846 140.301 438.745 139.203 438.745Z" fill="#61616C"/>
</svg>
